<svg width="512" height="512" viewBox="0 0 512 512" xmlns="http://www.w3.org/2000/svg">
  <!--White background for better visibility-->
  <circle cx="256" cy="256" r="240" fill="#ffffff"/>
  
  <!-- Tennis ball matching TennisBallIcon exactly -->
  <g transform="translate(221.276 221.276)">
    <!-- Main tennis ball circle - tennis green -->
    <circle cx="34.724" cy="34.724" r="34.724" fill="#2e6b4a" transform="scale(2)"/>
    
    <!-- Tennis ball seam lines - scaled to match the circle -->
    <g transform="scale(2)">
      <path 
        d="M6.788,0.172a17.57,17.57,0,0,0-2.305-.172,20.535,20.535,0,0,1-17.185,14.868,17.15,17.15,0,0,0-.19,2.318l.091-.013a22.96,22.96,0,0,0,19.574-16.94Z" 
        fill="white"
      />
      <path 
        d="M21.648,17.518a22.744,22.744,0,0,0-16.744,17.027l-.036.157a17.27,17.27,0,0,0,2.409-.228,20.609,20.609,0,0,1,14.343-14.597,18.03,18.03,0,0,0,.194-2.4Z" 
        fill="white"
      />
    </g>
  </g>
  
  <!-- Subtle border for definition -->
  <circle cx="256" cy="256" r="239" fill="none" stroke="#e5e5e5" stroke-width="2"/>
</svg>