<svg width="512" height="512" viewBox="0 0 512 512" xmlns="http://www.w3.org/2000/svg">
  <!-- Tennis green background circle -->
  <circle cx="256" cy="256" r="240" fill="#2e6b4a"/>
  
  <!-- Tennis ball main circle using exact TennisBallIcon design -->
  <g transform="translate(221.277 221.277) scale(5.1)">
    <!-- Main tennis ball circle - tennis green -->
    <circle cx="34.724" cy="34.724" r="34.724" fill="#2e6b4a"/>
    
    <!-- Tennis ball characteristic curved seam lines in white - exact paths from TennisBallIcon -->
    <path 
      d="M39.375,0.345a35.139,35.139,0,0,0-4.61-.344,41.069,41.069,0,0,1-34.369,29.735,34.3,34.3,0,0,0-.381,4.635l.183-.026a45.921,45.921,0,0,0,39.149-33.881Zm29.721,34.692a45.487,45.487,0,0,0-33.488,34.054l-.071.313a34.54,34.54,0,0,0,4.818-.455,41.218,41.218,0,0,1,28.686-29.194,36.059,36.059,0,0,0,.388-4.8Z" 
      fill="white"
    />
  </g>
  
  <!-- Additional highlight for better visibility on different backgrounds -->
  <circle cx="256" cy="256" r="180" fill="none" stroke="rgba(255,255,255,0.1)" stroke-width="2"/>
</svg>